<?xml version="1.0" encoding="utf-8"?>
<!-- Generator: Adobe Illustrator 25.2.0, SVG Export Plug-In . SVG Version: 6.00 Build 0)  -->
<svg version="1.1" id="Layer_1" xmlns="http://www.w3.org/2000/svg" xmlns:xlink="http://www.w3.org/1999/xlink" x="0px" y="0px"
	 viewBox="0 0 48 48" style="enable-background:new 0 0 48 48;" xml:space="preserve">
<style type="text/css">
	.st0{fill:none;}
	.st1{fill:#FFFFFF;}
</style>
<path class="st0" d="M24,0L24,0c13.3,0,24,10.7,24,24l0,0c0,13.3-10.7,24-24,24l0,0C10.7,48,0,37.3,0,24l0,0C0,10.7,10.7,0,24,0z"/>
<g>
	<path class="st1" d="M24,4c11,0,20,9,20,20s-9,20-20,20S4,35,4,24S13,4,24,4 M24,0C10.7,0,0,10.7,0,24s10.7,24,24,24s24-10.7,24-24
		S37.3,0,24,0L24,0z"/>
</g>
<path class="st1" d="M10.8,23.5c7-3.1,11.6-5.2,14-6.1c6.6-2.8,8-3.3,8.9-3.3c0.2,0,0.6,0,0.9,0.3c0.2,0.2,0.3,0.5,0.3,0.7
	c0,0.2,0.1,0.6,0,1c-0.4,3.9-1.9,13.2-2.7,17.6c-0.3,1.8-1,2.4-1.6,2.5c-1.4,0.1-2.4-0.9-3.8-1.8c-2.1-1.4-3.3-2.3-5.3-3.7
	c-2.4-1.6-0.8-2.5,0.5-3.9c0.4-0.4,6.5-6.1,6.6-6.6c0-0.1,0-0.3-0.1-0.4c-0.1-0.1-0.3-0.1-0.5,0c-0.2,0-3.6,2.3-10.1,6.8
	c-1,0.7-1.8,1-2.6,1c-0.9,0-2.5-0.5-3.7-0.9c-1.5-0.5-2.7-0.8-2.6-1.6C9.1,24.4,9.7,23.9,10.8,23.5z"/>
</svg>
