<?xml version="1.0" encoding="utf-8"?>
<!-- Generator: Adobe Illustrator 25.2.0, SVG Export Plug-In . SVG Version: 6.00 Build 0)  -->
<svg version="1.1" id="Layer_1" xmlns="http://www.w3.org/2000/svg" xmlns:xlink="http://www.w3.org/1999/xlink" x="0px" y="0px"
	 viewBox="0 0 20 20" style="enable-background:new 0 0 20 20;" xml:space="preserve">
<style type="text/css">
	.st0{fill:#FFFFFF;}
</style>
<path class="st0" d="M10,20c5.5,0,10-4.5,10-10S15.5,0,10,0S0,4.5,0,10S4.5,20,10,20z M11.1,17.9c0.5-3.6,3.3-6.4,6.8-6.8
	C17.4,14.6,14.6,17.4,11.1,17.9z M17.9,9.1c-4.7,0.5-8.4,4.2-8.9,8.9c-3.7-0.4-6.6-3.3-7-7c4.7-0.5,8.4-4.2,8.9-8.9
	C14.6,2.5,17.5,5.4,17.9,9.1z M8.9,2.1C8.5,5.6,5.7,8.4,2.1,8.9C2.6,5.4,5.4,2.6,8.9,2.1L8.9,2.1z"/>
</svg>
